<svg width="500" height="400" viewBox="0 0 500 400" xmlns="http://www.w3.org/2000/svg">
  <g>
    <!-- Lignes 1 à 8 -->
    <rect x="0" y="0" width="50" height="50" fill="#f0d9b5"/>
    <rect x="50" y="0" width="50" height="50" fill="#b58863"/>
    <rect x="100" y="0" width="50" height="50" fill="#f0d9b5"/>
    <rect x="150" y="0" width="50" height="50" fill="#b58863"/>
    <rect x="200" y="0" width="50" height="50" fill="#f0d9b5"/>
    <rect x="250" y="0" width="50" height="50" fill="#b58863"/>
    <rect x="300" y="0" width="50" height="50" fill="#f0d9b5"/>
    <rect x="350" y="0" width="50" height="50" fill="#b58863"/>
    <rect x="400" y="0" width="50" height="50" fill="#f0d9b5"/>
    <rect x="450" y="0" width="50" height="50" fill="#b58863"/>

    <rect x="0" y="50" width="50" height="50" fill="#b58863"/>
    <rect x="50" y="50" width="50" height="50" fill="#f0d9b5"/>
    <rect x="100" y="50" width="50" height="50" fill="#b58863"/>
    <rect x="150" y="50" width="50" height="50" fill="#f0d9b5"/>
    <rect x="200" y="50" width="50" height="50" fill="#b58863"/>
    <rect x="250" y="50" width="50" height="50" fill="#f0d9b5"/>
    <rect x="300" y="50" width="50" height="50" fill="#b58863"/>
    <rect x="350" y="50" width="50" height="50" fill="#f0d9b5"/>
    <rect x="400" y="50" width="50" height="50" fill="#b58863"/>
    <rect x="450" y="50" width="50" height="50" fill="#f0d9b5"/>

    <rect x="0" y="100" width="50" height="50" fill="#f0d9b5"/>
    <rect x="50" y="100" width="50" height="50" fill="#b58863"/>
    <rect x="100" y="100" width="50" height="50" fill="#f0d9b5"/>
    <rect x="150" y="100" width="50" height="50" fill="#b58863"/>
    <rect x="200" y="100" width="50" height="50" fill="#f0d9b5"/>
    <rect x="250" y="100" width="50" height="50" fill="#b58863"/>
    <rect x="300" y="100" width="50" height="50" fill="#f0d9b5"/>
    <rect x="350" y="100" width="50" height="50" fill="#b58863"/>
    <rect x="400" y="100" width="50" height="50" fill="#f0d9b5"/>
    <rect x="450" y="100" width="50" height="50" fill="#b58863"/>

    <rect x="0" y="150" width="50" height="50" fill="#b58863"/>
    <rect x="50" y="150" width="50" height="50" fill="#f0d9b5"/>
    <rect x="100" y="150" width="50" height="50" fill="#b58863"/>
    <rect x="150" y="150" width="50" height="50" fill="#f0d9b5"/>
    <rect x="200" y="150" width="50" height="50" fill="#b58863"/>
    <rect x="250" y="150" width="50" height="50" fill="#f0d9b5"/>
    <rect x="300" y="150" width="50" height="50" fill="#b58863"/>
    <rect x="350" y="150" width="50" height="50" fill="#f0d9b5"/>
    <rect x="400" y="150" width="50" height="50" fill="#b58863"/>
    <rect x="450" y="150" width="50" height="50" fill="#f0d9b5"/>

    <rect x="0" y="200" width="50" height="50" fill="#f0d9b5"/>
    <rect x="50" y="200" width="50" height="50" fill="#b58863"/>
    <rect x="100" y="200" width="50" height="50" fill="#f0d9b5"/>
    <rect x="150" y="200" width="50" height="50" fill="#b58863"/>
    <rect x="200" y="200" width="50" height="50" fill="#f0d9b5"/>
    <rect x="250" y="200" width="50" height="50" fill="#b58863"/>
    <rect x="300" y="200" width="50" height="50" fill="#f0d9b5"/>
    <rect x="350" y="200" width="50" height="50" fill="#b58863"/>
    <rect x="400" y="200" width="50" height="50" fill="#f0d9b5"/>
    <rect x="450" y="200" width="50" height="50" fill="#b58863"/>

    <rect x="0" y="250" width="50" height="50" fill="#b58863"/>
    <rect x="50" y="250" width="50" height="50" fill="#f0d9b5"/>
    <rect x="100" y="250" width="50" height="50" fill="#b58863"/>
    <rect x="150" y="250" width="50" height="50" fill="#f0d9b5"/>
    <rect x="200" y="250" width="50" height="50" fill="#b58863"/>
    <rect x="250" y="250" width="50" height="50" fill="#f0d9b5"/>
    <rect x="300" y="250" width="50" height="50" fill="#b58863"/>
    <rect x="350" y="250" width="50" height="50" fill="#f0d9b5"/>
    <rect x="400" y="250" width="50" height="50" fill="#b58863"/>
    <rect x="450" y="250" width="50" height="50" fill="#f0d9b5"/>

    <rect x="0" y="300" width="50" height="50" fill="#f0d9b5"/>
    <rect x="50" y="300" width="50" height="50" fill="#b58863"/>
    <rect x="100" y="300" width="50" height="50" fill="#f0d9b5"/>
    <rect x="150" y="300" width="50" height="50" fill="#b58863"/>
    <rect x="200" y="300" width="50" height="50" fill="#f0d9b5"/>
    <rect x="250" y="300" width="50" height="50" fill="#b58863"/>
    <rect x="300" y="300" width="50" height="50" fill="#f0d9b5"/>
    <rect x="350" y="300" width="50" height="50" fill="#b58863"/>
    <rect x="400" y="300" width="50" height="50" fill="#f0d9b5"/>
    <rect x="450" y="300" width="50" height="50" fill="#b58863"/>

    <rect x="0" y="350" width="50" height="50" fill="#b58863"/>
    <rect x="50" y="350" width="50" height="50" fill="#f0d9b5"/>
    <rect x="100" y="350" width="50" height="50" fill="#b58863"/>
    <rect x="150" y="350" width="50" height="50" fill="#f0d9b5"/>
    <rect x="200" y="350" width="50" height="50" fill="#b58863"/>
    <rect x="250" y="350" width="50" height="50" fill="#f0d9b5"/>
    <rect x="300" y="350" width="50" height="50" fill="#b58863"/>
    <rect x="350" y="350" width="50" height="50" fill="#f0d9b5"/>
    <rect x="400" y="350" width="50" height="50" fill="#b58863"/>
    <rect x="450" y="350" width="50" height="50" fill="#f0d9b5"/>
  </g>

  <!-- Teinte des colonnes bleues -->
  <g fill="rgba(0, 0, 255, 0.55)">
    <rect x="0" y="300" width="50" height="50"/>
    <rect x="50" y="300" width="50" height="50"/>
    <rect x="100" y="300" width="50" height="50"/>
    <rect x="150" y="300" width="50" height="50"/>
    <rect x="200" y="300" width="50" height="50"/>
    <rect x="250" y="300" width="50" height="50"/>
    <rect x="300" y="300" width="50" height="50"/>
    <rect x="350" y="300" width="50" height="50"/>
    <rect x="400" y="300" width="50" height="50"/>
    <rect x="450" y="300" width="50" height="50"/>

    <rect x="0" y="350" width="50" height="50"/>
    <rect x="50" y="350" width="50" height="50"/>
    <rect x="100" y="350" width="50" height="50"/>
    <rect x="150" y="350" width="50" height="50"/>
    <rect x="200" y="350" width="50" height="50"/>
    <rect x="250" y="350" width="50" height="50"/>
    <rect x="300" y="350" width="50" height="50"/>
    <rect x="350" y="350" width="50" height="50"/>
    <rect x="400" y="350" width="50" height="50"/>
    <rect x="450" y="350" width="50" height="50"/>
  </g>

  <!-- Teinte des colonnes rouges -->
  <g fill="rgba(255, 0, 0, 0.55)">
   <rect x="0" y="0" width="50" height="50"/>
    <rect x="50" y="0" width="50" height="50"/>
    <rect x="100" y="0" width="50" height="50"/>
    <rect x="150" y="0" width="50" height="50"/>
    <rect x="200" y="0" width="50" height="50"/>
    <rect x="250" y="0" width="50" height="50"/>
    <rect x="300" y="0" width="50" height="50"/>
    <rect x="350" y="0" width="50" height="50"/>
    <rect x="400" y="0" width="50" height="50"/>
    <rect x="450" y="0" width="50" height="50"/>

    <rect x="0" y="50" width="50" height="50"/>
    <rect x="50" y="50" width="50" height="50"/>
    <rect x="100" y="50" width="50" height="50"/>
    <rect x="150" y="50" width="50" height="50"/>
    <rect x="200" y="50" width="50" height="50"/>
    <rect x="250" y="50" width="50" height="50"/>
    <rect x="300" y="50" width="50" height="50"/>
    <rect x="350" y="50" width="50" height="50"/>
    <rect x="400" y="50" width="50" height="50"/>
    <rect x="450" y="50" width="50" height="50"/>
  </g>
</svg>
