<!-- filepath: /z:/websites/cardgame/assets/pions.svg -->
<svg xmlns="http://www.w3.org/2000/svg" viewBox="0 0 260 260">
  <!-- Definitions for reusable elements -->
  <defs>
    <!-- Gradients -->
    <linearGradient id="goldGradient" x1="0%" y1="0%" x2="0%" y2="100%">
      <stop offset="0%" style="stop-color:#FFF5CC;stop-opacity:1" />
      <stop offset="100%" style="stop-color:#FFD700;stop-opacity:1" />
    </linearGradient>
    
    <linearGradient id="flameGradient" x1="0%" y1="0%" x2="0%" y2="100%">
      <stop offset="0%" style="stop-color:#FFFF00;stop-opacity:1" />
      <stop offset="50%" style="stop-color:#FF4500;stop-opacity:1" />
      <stop offset="100%" style="stop-color:#8B0000;stop-opacity:1" />
    </linearGradient>
    
    <linearGradient id="waterGradient" x1="0%" y1="0%" x2="0%" y2="100%">
      <stop offset="0%" style="stop-color:#00FFFF;stop-opacity:1" />
      <stop offset="100%" style="stop-color:#0000CD;stop-opacity:1" />
    </linearGradient>
    
    <linearGradient id="earthGradient" x1="0%" y1="0%" x2="0%" y2="100%">
      <stop offset="0%" style="stop-color:#8B4513;stop-opacity:1" />
      <stop offset="100%" style="stop-color:#654321;stop-opacity:1" />
    </linearGradient>
    
    <!-- Filters -->
    <filter id="shadowEffect" x="-20%" y="-20%" width="140%" height="140%">
      <feGaussianBlur in="SourceAlpha" stdDeviation="2" />
      <feOffset dx="1" dy="2" result="offsetblur" />
      <feComponentTransfer>
        <feFuncA type="linear" slope="0.5" />
      </feComponentTransfer>
      <feMerge>
        <feMergeNode />
        <feMergeNode in="SourceGraphic" />
      </feMerge>
    </filter>
    
    <filter id="glowEffect" x="-30%" y="-30%" width="160%" height="160%">
      <feGaussianBlur in="SourceGraphic" stdDeviation="3" />
      <feComponentTransfer>
        <feFuncA type="linear" slope="0.5" />
      </feComponentTransfer>
      <feMerge>
        <feMergeNode />
        <feMergeNode in="SourceGraphic" />
      </feMerge>
    </filter>
  </defs>


  <!-- Archer (Ranged) -->
  <g transform="translate(5, 5) scale(5)" filter="url(#shadowEffect)">
    <rect width="50" height="50" rx="5" ry="5" fill="#20B2AA" stroke="#157e79" stroke-width="2"/>
    <!-- Body -->
    <path d="M20,30 L30,30 L30,45 L20,45 Z" fill="#FFDAB9" stroke="#000" stroke-width="1"/>
    <!-- Head -->
    <circle cx="25" cy="25" r="5" fill="#FFDAB9" stroke="#000" stroke-width="1"/>
    <!-- Eyes -->
    <circle cx="23" cy="24" r="1" fill="#000"/>
    <circle cx="27" cy="24" r="1" fill="#000"/>
    <!-- Bow -->
    <path d="M15,25 Q10,35 15,45" stroke="#8B4513" fill="none" stroke-width="2"/>
    <path d="M35,25 Q40,35 35,45" stroke="#8B4513" fill="none" stroke-width="2"/>
    <path d="M15,35 L35,35" stroke="#8B4513" stroke-width="1"/>
    <!-- Arrow -->
    <path d="M25,20 L25,5" stroke="#000" stroke-width="1"/>
    <path d="M22,8 L25,5 L28,8" stroke="#000" stroke-width="1"/>
    <path d="M23,35 L27,35" stroke="#8B4513" stroke-width="1.5"/>
    <!-- Range indicator -->
    <path d="M15,15 L10,10 M35,15 L40,10" stroke="#FFF" stroke-width="1" stroke-dasharray="2,1"/>
    <!-- Cost indicator -->
    <!-- <circle cx="10" cy="10" r="6" fill="#FFF" stroke="#000" stroke-width="1"/> -->
    <!-- <text x="10" y="13" font-family="Arial" font-size="8" font-weight="bold" fill="#000" text-anchor="middle">3</text> -->
  </g>
</svg>