<!-- filepath: /z:/websites/cardgame/assets/pions.svg -->
<svg xmlns="http://www.w3.org/2000/svg" viewBox="0 0 260 260">
  <!-- Definitions for reusable elements -->
  <defs>
    <!-- Gradients -->
    <linearGradient id="goldGradient" x1="0%" y1="0%" x2="0%" y2="100%">
      <stop offset="0%" style="stop-color:#FFF5CC;stop-opacity:1" />
      <stop offset="100%" style="stop-color:#FFD700;stop-opacity:1" />
    </linearGradient>
    
    <linearGradient id="flameGradient" x1="0%" y1="0%" x2="0%" y2="100%">
      <stop offset="0%" style="stop-color:#FFFF00;stop-opacity:1" />
      <stop offset="50%" style="stop-color:#FF4500;stop-opacity:1" />
      <stop offset="100%" style="stop-color:#8B0000;stop-opacity:1" />
    </linearGradient>
    
    <linearGradient id="waterGradient" x1="0%" y1="0%" x2="0%" y2="100%">
      <stop offset="0%" style="stop-color:#00FFFF;stop-opacity:1" />
      <stop offset="100%" style="stop-color:#0000CD;stop-opacity:1" />
    </linearGradient>
    
    <linearGradient id="earthGradient" x1="0%" y1="0%" x2="0%" y2="100%">
      <stop offset="0%" style="stop-color:#8B4513;stop-opacity:1" />
      <stop offset="100%" style="stop-color:#654321;stop-opacity:1" />
    </linearGradient>
    
    <!-- Filters -->
    <filter id="shadowEffect" x="-20%" y="-20%" width="140%" height="140%">
      <feGaussianBlur in="SourceAlpha" stdDeviation="2" />
      <feOffset dx="1" dy="2" result="offsetblur" />
      <feComponentTransfer>
        <feFuncA type="linear" slope="0.5" />
      </feComponentTransfer>
      <feMerge>
        <feMergeNode />
        <feMergeNode in="SourceGraphic" />
      </feMerge>
    </filter>
    
    <filter id="glowEffect" x="-30%" y="-30%" width="160%" height="160%">
      <feGaussianBlur in="SourceGraphic" stdDeviation="3" />
      <feComponentTransfer>
        <feFuncA type="linear" slope="0.5" />
      </feComponentTransfer>
      <feMerge>
        <feMergeNode />
        <feMergeNode in="SourceGraphic" />
      </feMerge>
    </filter>
  </defs>


   <!-- Centaur (Utility) -->
  <g transform="translate(5, 5) scale(5)" filter="url(#shadowEffect)">
    <rect width="50" height="50" rx="5" ry="5"  fill="#7B68EE" stroke="#5A4AB1" stroke-width="2"/>
    <!-- Horse body -->
    <path d="M10,35 L40,35 L35,45 L15,45 Z" fill="#8B4513" stroke="#000" stroke-width="1"/>
    <!-- Human torso -->
    <path d="M20,20 L30,20 L30,35 L20,35 Z" fill="#FFDAB9" stroke="#000" stroke-width="1"/>
    <!-- Head -->
    <circle cx="25" cy="15" r="5" fill="#FFDAB9" stroke="#000" stroke-width="1"/>
    <!-- Eyes -->
    <circle cx="23" cy="14" r="1" fill="#000"/>
    <circle cx="27" cy="14" r="1" fill="#000"/>
    <!-- Hair -->
    <path d="M20,15 Q25,8 30,15" fill="#8B4513" stroke="#000" stroke-width="1"/>
    <!-- Arms -->
    <path d="M20,25 L15,30 M30,25 L35,30" stroke="#FFDAB9" stroke-width="2" fill="none"/>
    <!-- Pull ability indicator -->
    <path d="M15,5 L35,5" stroke="#FFF" stroke-width="1"/>
    <path d="M22,2 L15,5 L22,8 M28,2 L35,5 L28,8" stroke="#FFF" stroke-width="1"/>
    <!-- Cost indicator -->
    <!-- <circle cx="10" cy="10" r="6" fill="#FFF" stroke="#000" stroke-width="1"/> -->
    <!-- <text x="10" y="13" font-family="Arial" font-size="8" font-weight="bold" fill="#000" text-anchor="middle">2</text> -->
  </g>
</svg>