<!-- filepath: /z:/websites/cardgame/assets/pions.svg -->
<svg xmlns="http://www.w3.org/2000/svg" viewBox="0 0 260 260">
  <!-- Definitions for reusable elements -->
  <defs>
    <!-- Gradients -->
    <linearGradient id="goldGradient" x1="0%" y1="0%" x2="0%" y2="100%">
      <stop offset="0%" style="stop-color:#FFF5CC;stop-opacity:1" />
      <stop offset="100%" style="stop-color:#FFD700;stop-opacity:1" />
    </linearGradient>
    
    <linearGradient id="flameGradient" x1="0%" y1="0%" x2="0%" y2="100%">
      <stop offset="0%" style="stop-color:#FFFF00;stop-opacity:1" />
      <stop offset="50%" style="stop-color:#FF4500;stop-opacity:1" />
      <stop offset="100%" style="stop-color:#8B0000;stop-opacity:1" />
    </linearGradient>
    
    <linearGradient id="waterGradient" x1="0%" y1="0%" x2="0%" y2="100%">
      <stop offset="0%" style="stop-color:#00FFFF;stop-opacity:1" />
      <stop offset="100%" style="stop-color:#0000CD;stop-opacity:1" />
    </linearGradient>
    
    <linearGradient id="earthGradient" x1="0%" y1="0%" x2="0%" y2="100%">
      <stop offset="0%" style="stop-color:#8B4513;stop-opacity:1" />
      <stop offset="100%" style="stop-color:#654321;stop-opacity:1" />
    </linearGradient>
    
    <!-- Filters -->
    <filter id="shadowEffect" x="-20%" y="-20%" width="140%" height="140%">
      <feGaussianBlur in="SourceAlpha" stdDeviation="2" />
      <feOffset dx="1" dy="2" result="offsetblur" />
      <feComponentTransfer>
        <feFuncA type="linear" slope="0.5" />
      </feComponentTransfer>
      <feMerge>
        <feMergeNode />
        <feMergeNode in="SourceGraphic" />
      </feMerge>
    </filter>
    
    <filter id="glowEffect" x="-30%" y="-30%" width="160%" height="160%">
      <feGaussianBlur in="SourceGraphic" stdDeviation="3" />
      <feComponentTransfer>
        <feFuncA type="linear" slope="0.5" />
      </feComponentTransfer>
      <feMerge>
        <feMergeNode />
        <feMergeNode in="SourceGraphic" />
      </feMerge>
    </filter>
  </defs>


  <!-- Goblin (Low-Cost Offensive) -->
  <g transform="translate(5, 5) scale(5)" filter="url(#shadowEffect)">
    <rect width="50" height="50" rx="5" ry="5" fill="#2E8B57" stroke="#1e5c3a" stroke-width="2"/>
    <!-- Goblin face -->
    <path d="M15,20 C15,15 35,15 35,20 L35,35 C35,40 15,40 15,35 Z" fill="#5A8A5A" stroke="#000" stroke-width="1"/>
    <!-- Ears -->
    <path d="M15,20 L10,10 L15,15 M35,20 L40,10 L35,15" fill="#5A8A5A" stroke="#000" stroke-width="1"/>
    <!-- Eyes -->
    <circle cx="20" cy="25" r="3" fill="#FF4500"/>
    <circle cx="30" cy="25" r="3" fill="#FF4500"/>
    <circle cx="20" cy="25" r="1" fill="#000"/>
    <circle cx="30" cy="25" r="1" fill="#000"/>
    <!-- Mouth -->
    <path d="M18,32 Q25,36 32,32" stroke="#000" fill="none" stroke-width="1.5"/>
    <!-- Teeth -->
    <path d="M22,32 L22,34 M28,32 L28,34" stroke="#FFF" stroke-width="1.5"/>
    <!-- Forward attack indicator -->
    <path d="M25,10 L25,5 M22,7 L25,5 L28,7" stroke="#FFF" stroke-width="1.5"/>
    <!-- Cost indicator -->
    <!-- <circle cx="10" cy="10" r="6" fill="#FFF" stroke="#000" stroke-width="1"/> -->
    <!-- <text x="10" y="13" font-family="Arial" font-size="8" font-weight="bold" fill="#000" text-anchor="middle">1</text> -->
  </g>
</svg>