<!-- filepath: /z:/websites/cardgame/assets/pions.svg -->
<svg xmlns="http://www.w3.org/2000/svg" viewBox="0 0 260 260">
  <!-- Definitions for reusable elements -->
  <defs>
    <!-- Gradients -->
    <linearGradient id="goldGradient" x1="0%" y1="0%" x2="0%" y2="100%">
      <stop offset="0%" style="stop-color:#FFF5CC;stop-opacity:1" />
      <stop offset="100%" style="stop-color:#FFD700;stop-opacity:1" />
    </linearGradient>
    
    <linearGradient id="flameGradient" x1="0%" y1="0%" x2="0%" y2="100%">
      <stop offset="0%" style="stop-color:#FFFF00;stop-opacity:1" />
      <stop offset="50%" style="stop-color:#FF4500;stop-opacity:1" />
      <stop offset="100%" style="stop-color:#8B0000;stop-opacity:1" />
    </linearGradient>
    
    <linearGradient id="waterGradient" x1="0%" y1="0%" x2="0%" y2="100%">
      <stop offset="0%" style="stop-color:#00FFFF;stop-opacity:1" />
      <stop offset="100%" style="stop-color:#0000CD;stop-opacity:1" />
    </linearGradient>
    
    <linearGradient id="earthGradient" x1="0%" y1="0%" x2="0%" y2="100%">
      <stop offset="0%" style="stop-color:#8B4513;stop-opacity:1" />
      <stop offset="100%" style="stop-color:#654321;stop-opacity:1" />
    </linearGradient>
    
    <!-- Filters -->
    <filter id="shadowEffect">
      <feGaussianBlur in="SourceAlpha" stdDeviation="2" />
      <feOffset dx="1" dy="2" result="offsetblur" />
      <feComponentTransfer>
        <feFuncA type="linear" slope="0.5" />
      </feComponentTransfer>
      <feMerge>
        <feMergeNode />
        <feMergeNode in="SourceGraphic" />
      </feMerge>
    </filter>
    
    <filter id="glowEffect" x="-30%" y="-30%" width="160%" height="160%">
      <feGaussianBlur in="SourceGraphic" stdDeviation="3" />
      <feComponentTransfer>
        <feFuncA type="linear" slope="0.5" />
      </feComponentTransfer>
      <feMerge>
        <feMergeNode />
        <feMergeNode in="SourceGraphic" />
      </feMerge>
    </filter>
  </defs>


<!-- Naiad (Support) -->
  <g transform="translate(5, 5) scale(5)" filter="url(#shadowEffect)">
    <rect width="50" height="50" rx="5" ry="5" fill="#4169E1" stroke="#2A4591" stroke-width="2"/>
    <!-- Water form -->
    <path d="M15,40 C15,25 35,25 35,40 S25,50 15,40" fill="url(#waterGradient)" stroke="#000" stroke-width="1"/>
    <!-- Hair flowing -->
    <path d="M20,10 Q15,20 20,30 M25,5 Q20,20 25,35 M30,10 Q35,20 30,30" stroke="#00BFFF" fill="none" stroke-width="1.5" stroke-dasharray="2,1"/>
    <!-- Face -->
    <circle cx="25" cy="20" r="5" fill="#ADD8E6" stroke="#000" stroke-width="1"/>
    <!-- Eyes -->
    <circle cx="23" cy="19" r="1" fill="#000"/>
    <circle cx="27" cy="19" r="1" fill="#000"/>
    <!-- Mouth -->
    <path d="M23,22 Q25,24 27,22" stroke="#000" fill="none" stroke-width="0.5"/>
    <!-- Card draw symbol -->
    <rect x="15" y="10" width="7" height="10" rx="1" ry="1" fill="#FFF" stroke="#000" stroke-width="0.5"/>
    <rect x="22" y="8" width="7" height="10" rx="1" ry="1" fill="#FFF" stroke="#000" stroke-width="0.5"/>
    <!-- Cost indicator -->
    <!-- <circle cx="10" cy="10" r="6" fill="#FFF" stroke="#000" stroke-width="1"/> -->
    <!-- <text x="10" y="13" font-family="Arial" font-size="8" font-weight="bold" fill="#000" text-anchor="middle">1</text> -->
  </g>
</svg>