<!-- filepath: /z:/websites/cardgame/assets/pions.svg -->
<svg xmlns="http://www.w3.org/2000/svg" viewBox="0 0 260 260">
  <!-- Definitions for reusable elements -->
  <defs>
    <!-- Gradients -->
    <linearGradient id="goldGradient" x1="0%" y1="0%" x2="0%" y2="100%">
      <stop offset="0%" style="stop-color:#FFF5CC;stop-opacity:1" />
      <stop offset="100%" style="stop-color:#FFD700;stop-opacity:1" />
    </linearGradient>
    
    <linearGradient id="flameGradient" x1="0%" y1="0%" x2="0%" y2="100%">
      <stop offset="0%" style="stop-color:#FFFF00;stop-opacity:1" />
      <stop offset="50%" style="stop-color:#FF4500;stop-opacity:1" />
      <stop offset="100%" style="stop-color:#8B0000;stop-opacity:1" />
    </linearGradient>
    
    <linearGradient id="waterGradient" x1="0%" y1="0%" x2="0%" y2="100%">
      <stop offset="0%" style="stop-color:#00FFFF;stop-opacity:1" />
      <stop offset="100%" style="stop-color:#0000CD;stop-opacity:1" />
    </linearGradient>
    
    <linearGradient id="earthGradient" x1="0%" y1="0%" x2="0%" y2="100%">
      <stop offset="0%" style="stop-color:#8B4513;stop-opacity:1" />
      <stop offset="100%" style="stop-color:#654321;stop-opacity:1" />
    </linearGradient>
    
    <!-- Filters -->
    <filter id="shadowEffect" x="-20%" y="-20%" width="140%" height="140%">
      <feGaussianBlur in="SourceAlpha" stdDeviation="2" />
      <feOffset dx="1" dy="2" result="offsetblur" />
      <feComponentTransfer>
        <feFuncA type="linear" slope="0.5" />
      </feComponentTransfer>
      <feMerge>
        <feMergeNode />
        <feMergeNode in="SourceGraphic" />
      </feMerge>
    </filter>
    
    <filter id="glowEffect" x="-30%" y="-30%" width="160%" height="160%">
      <feGaussianBlur in="SourceGraphic" stdDeviation="3" />
      <feComponentTransfer>
        <feFuncA type="linear" slope="0.5" />
      </feComponentTransfer>
      <feMerge>
        <feMergeNode />
        <feMergeNode in="SourceGraphic" />
      </feMerge>
    </filter>
  </defs>


  <!-- Shapeshifter (Special Ability) -->
  <g transform="translate(5, 5) scale(5)" filter="url(#shadowEffect)">
    <rect width="50" height="50" rx="5" ry="5" fill="#9370DB" stroke="#7054a3" stroke-width="2"/>
    <!-- Amorphous body -->
    <path d="M15,15 C10,25 10,35 20,40 C30,45 40,35 40,25 C40,15 30,10 25,15 C20,10 15,15 15,15 Z" 
          fill="#9370DB" stroke="#000" stroke-width="1" opacity="0.8"/>
    <!-- Changing face elements -->
    <circle cx="25" cy="25" r="10" fill="#F8F8FF" stroke="#000" stroke-width="1" opacity="0.6"/>
    <!-- Multiple features -->
    <circle cx="20" cy="20" r="2" fill="#00BFFF"/>
    <circle cx="30" cy="20" r="2" fill="#32CD32"/>
    <path d="M20,30 Q25,35 30,30" stroke="#FF6347" fill="none" stroke-width="1.5"/>
    <path d="M15,25 Q20,15 25,25" stroke="#FFD700" fill="none" stroke-width="1" opacity="0.7"/>
    <path d="M25,25 Q30,15 35,25" stroke="#00BFFF" fill="none" stroke-width="1" opacity="0.7"/>
    <!-- Swap ability indicator -->
    <path d="M15,10 L10,15 L15,20 M35,10 L40,15 L35,20" stroke="#FFF" stroke-width="1"/>
    <path d="M10,15 L40,15" stroke="#FFF" stroke-width="1" stroke-dasharray="2,1"/>
    <!-- Cost indicator -->
    <!-- <circle cx="10" cy="10" r="6" fill="#FFF" stroke="#000" stroke-width="1"/> -->
    <!-- <text x="10" y="13" font-family="Arial" font-size="8" font-weight="bold" fill="#000" text-anchor="middle">4</text> -->
  </g>
</svg>