<!-- filepath: /z:/websites/cardgame/assets/pions.svg -->
<svg xmlns="http://www.w3.org/2000/svg" viewBox="0 0 260 260">
  <!-- Definitions for reusable elements -->
  <defs>
    <!-- Gradients -->
    <linearGradient id="goldGradient" x1="0%" y1="0%" x2="0%" y2="100%">
      <stop offset="0%" style="stop-color:#FFF5CC;stop-opacity:1" />
      <stop offset="100%" style="stop-color:#FFD700;stop-opacity:1" />
    </linearGradient>
    
    <linearGradient id="flameGradient" x1="0%" y1="0%" x2="0%" y2="100%">
      <stop offset="0%" style="stop-color:#FFFF00;stop-opacity:1" />
      <stop offset="50%" style="stop-color:#FF4500;stop-opacity:1" />
      <stop offset="100%" style="stop-color:#8B0000;stop-opacity:1" />
    </linearGradient>
    
    <linearGradient id="waterGradient" x1="0%" y1="0%" x2="0%" y2="100%">
      <stop offset="0%" style="stop-color:#00FFFF;stop-opacity:1" />
      <stop offset="100%" style="stop-color:#0000CD;stop-opacity:1" />
    </linearGradient>
    
    <linearGradient id="earthGradient" x1="0%" y1="0%" x2="0%" y2="100%">
      <stop offset="0%" style="stop-color:#8B4513;stop-opacity:1" />
      <stop offset="100%" style="stop-color:#654321;stop-opacity:1" />
    </linearGradient>
    
    <!-- Filters -->
    <filter id="shadowEffect" x="-20%" y="-20%" width="140%" height="140%">
      <feGaussianBlur in="SourceAlpha" stdDeviation="2" />
      <feOffset dx="1" dy="2" result="offsetblur" />
      <feComponentTransfer>
        <feFuncA type="linear" slope="0.5" />
      </feComponentTransfer>
      <feMerge>
        <feMergeNode />
        <feMergeNode in="SourceGraphic" />
      </feMerge>
    </filter>
    
    <filter id="glowEffect" x="-30%" y="-30%" width="160%" height="160%">
      <feGaussianBlur in="SourceGraphic" stdDeviation="3" />
      <feComponentTransfer>
        <feFuncA type="linear" slope="0.5" />
      </feComponentTransfer>
      <feMerge>
        <feMergeNode />
        <feMergeNode in="SourceGraphic" />
      </feMerge>
    </filter>
  </defs>


 <!-- Siren (Ranged) -->
  <g transform="translate(5, 5) scale(5)" filter="url(#shadowEffect)">
    <rect width="50" height="50" rx="5" ry="5" fill="#CD5C5C" stroke="#9B4444" stroke-width="2"/>
    <!-- Female upper body -->
    <path d="M20,25 Q25,20 30,25 L30,40 Q25,42 20,40 Z" fill="#FFDAB9" stroke="#000" stroke-width="1"/>
    <!-- Fish tail -->
    <path d="M20,40 Q25,35 30,40 L30,45 Q25,50 20,45 Z" fill="#1E90FF" stroke="#000" stroke-width="1"/>
    <path d="M20,42 L30,42" stroke="#000" stroke-width="1" stroke-dasharray="1,1"/>
    <!-- Hair -->
    <path d="M20,25 Q25,10 30,25" fill="#FF6347" stroke="#000" stroke-width="1"/>
    <!-- Face -->
    <circle cx="25" cy="28" r="3" fill="#FFDAB9" stroke="#000" stroke-width="0.5"/>
    <!-- Sound waves -->
    <path d="M15,20 Q25,15 35,20" stroke="#FF1493" fill="none" stroke-width="1" opacity="0.7"/>
    <path d="M15,18 Q25,13 35,18" stroke="#FF1493" fill="none" stroke-width="1" opacity="0.5"/>
    <path d="M15,16 Q25,11 35,16" stroke="#FF1493" fill="none" stroke-width="1" opacity="0.3"/>
    <!-- Diagonal attack indicators -->
    <path d="M10,10 L15,15 M40,10 L35,15 M10,40 L15,35 M40,40 L35,35" stroke="#FFF" stroke-width="1"/>
    <!-- Cost indicator -->
    <!-- <circle cx="10" cy="10" r="6" fill="#FFF" stroke="#000" stroke-width="1"/> -->
    <!-- <text x="10" y="13" font-family="Arial" font-size="8" font-weight="bold" fill="#000" text-anchor="middle">2</text> -->
  </g>
</svg>