<!-- filepath: /z:/websites/cardgame/assets/pions.svg -->
<svg xmlns="http://www.w3.org/2000/svg" viewBox="0 0 260 260">
  <!-- Definitions for reusable elements -->
  <defs>
    <!-- Gradients -->
    <linearGradient id="goldGradient" x1="0%" y1="0%" x2="0%" y2="100%">
      <stop offset="0%" style="stop-color:#FFF5CC;stop-opacity:1" />
      <stop offset="100%" style="stop-color:#FFD700;stop-opacity:1" />
    </linearGradient>
    
    <linearGradient id="flameGradient" x1="0%" y1="0%" x2="0%" y2="100%">
      <stop offset="0%" style="stop-color:#FFFF00;stop-opacity:1" />
      <stop offset="50%" style="stop-color:#FF4500;stop-opacity:1" />
      <stop offset="100%" style="stop-color:#8B0000;stop-opacity:1" />
    </linearGradient>
    
    <linearGradient id="waterGradient" x1="0%" y1="0%" x2="0%" y2="100%">
      <stop offset="0%" style="stop-color:#00FFFF;stop-opacity:1" />
      <stop offset="100%" style="stop-color:#0000CD;stop-opacity:1" />
    </linearGradient>
    
    <linearGradient id="earthGradient" x1="0%" y1="0%" x2="0%" y2="100%">
      <stop offset="0%" style="stop-color:#8B4513;stop-opacity:1" />
      <stop offset="100%" style="stop-color:#654321;stop-opacity:1" />
    </linearGradient>
    
    <!-- Filters -->
    <filter id="shadowEffect" x="-20%" y="-20%" width="140%" height="140%">
      <feGaussianBlur in="SourceAlpha" stdDeviation="2" />
      <feOffset dx="1" dy="2" result="offsetblur" />
      <feComponentTransfer>
        <feFuncA type="linear" slope="0.5" />
      </feComponentTransfer>
      <feMerge>
        <feMergeNode />
        <feMergeNode in="SourceGraphic" />
      </feMerge>
    </filter>
    
    <filter id="glowEffect" x="-30%" y="-30%" width="160%" height="160%">
      <feGaussianBlur in="SourceGraphic" stdDeviation="3" />
      <feComponentTransfer>
        <feFuncA type="linear" slope="0.5" />
      </feComponentTransfer>
      <feMerge>
        <feMergeNode />
        <feMergeNode in="SourceGraphic" />
      </feMerge>
    </filter>
  </defs>


  <!-- Titan (Powerful Unit) -->
  <g transform="translate(5, 5) scale(5)" filter="url(#shadowEffect)">
    <rect width="50" height="50" rx="5" ry="5" fill="#8B0000" stroke="#6b0000" stroke-width="2"/>
    <!-- Muscular body -->
    <path d="M15,45 L35,45 L32,25 L18,25 Z" fill="#B22222" stroke="#000" stroke-width="1"/>
    <!-- Arms -->
    <path d="M18,25 L10,35 M32,25 L40,35" stroke="#B22222" stroke-width="3" fill="none"/>
    <!-- Head -->
    <circle cx="25" cy="15" r="8" fill="#B22222" stroke="#000" stroke-width="1"/>
    <!-- Eyes -->
    <circle cx="22" cy="14" r="2" fill="#FFD700"/>
    <circle cx="28" cy="14" r="2" fill="#FFD700"/>
    <circle cx="22" cy="14" r="1" fill="#000"/>
    <circle cx="28" cy="14" r="1" fill="#000"/>
    <!-- Helmet -->
    <path d="M17,10 L33,10 L35,15 L15,15 Z" fill="#A52A2A" stroke="#000" stroke-width="1"/>
    <!-- Area damage indicators -->
    <path d="M10,5 L15,10 M40,5 L35,10 M10,45 L15,40 M40,45 L35,40" stroke="#FFF" stroke-width="1.5"/>
    <circle cx="25" cy="25" r="15" stroke="#FFF" stroke-width="1" fill="none" stroke-dasharray="2,2"/>
    <!-- Cost indicator -->
    <!-- <circle cx="10" cy="10" r="6" fill="#FFF" stroke="#000" stroke-width="1"/> -->
    <!-- <text x="10" y="13" font-family="Arial" font-size="8" font-weight="bold" fill="#000" text-anchor="middle">6</text> -->
  </g>
</svg>